<svg width="525" height="512" viewBox="0 0 525 512" fill="none" xmlns="http://www.w3.org/2000/svg">
<g clip-path="url(#clip0_2_97)">
<path d="M52.6012 466.155L51.7978 447.431C43.4235 442.791 34.083 440.34 24.5874 440.291C37.6561 451.367 36.0229 472.717 44.8832 487.612C47.681 492.235 51.4466 496.147 55.9009 499.056C60.3553 501.966 65.3842 503.8 70.615 504.421L81.5514 511.362C83.0521 502.69 82.7212 493.783 80.5817 485.257C78.4421 476.73 74.5447 468.785 69.1579 461.97C66.0994 458.178 62.5924 454.8 58.7197 451.916C56.1004 459.075 52.6012 466.155 52.6012 466.155Z" fill="#F2F2F2"/>
<path d="M348.42 122.272H191.923C185.335 122.272 179.995 127.808 179.995 134.637V218.408C179.995 225.237 185.335 230.773 191.923 230.773H348.42C355.007 230.773 360.348 225.237 360.348 218.408V134.637C360.348 127.808 355.007 122.272 348.42 122.272Z" fill="white"/>
<path d="M348.42 231.608H191.923C188.547 231.604 185.311 230.212 182.924 227.737C180.537 225.263 179.194 221.908 179.19 218.408V134.637C179.194 131.138 180.537 127.783 182.924 125.308C185.311 122.833 188.547 121.442 191.923 121.438H348.42C351.796 121.442 355.032 122.834 357.419 125.308C359.806 127.783 361.149 131.138 361.153 134.637V218.408C361.149 221.908 359.806 225.263 357.419 227.737C355.032 230.212 351.796 231.604 348.42 231.608ZM191.923 123.107C188.974 123.11 186.147 124.326 184.062 126.488C181.976 128.649 180.804 131.58 180.8 134.637V218.408C180.804 221.465 181.976 224.396 184.062 226.558C186.147 228.719 188.974 229.935 191.923 229.938H348.42C351.369 229.935 354.196 228.719 356.281 226.557C358.366 224.396 359.539 221.465 359.542 218.408V134.637C359.539 131.58 358.366 128.649 356.281 126.488C354.196 124.326 351.369 123.11 348.42 123.107H191.923Z" fill="#3F3D56"/>
<path d="M512.67 109.335H356.173C352.904 109.332 349.77 107.984 347.458 105.588C345.146 103.191 343.846 99.9422 343.842 96.5533V12.7822C343.846 9.39323 345.146 6.14419 347.458 3.74788C349.77 1.35157 352.904 0.00370902 356.173 0H512.67C515.939 0.00387697 519.073 1.35182 521.385 3.74812C523.696 6.14442 524.996 9.39335 525 12.7822V96.5533C524.996 99.9421 523.696 103.191 521.385 105.587C519.073 107.984 515.939 109.332 512.67 109.335Z" fill="#F2F2F2"/>
<path d="M512.67 353.045H356.173C352.904 353.041 349.769 351.693 347.458 349.297C345.146 346.901 343.846 343.651 343.842 340.262V256.492C343.846 253.103 345.146 249.854 347.458 247.457C349.77 245.061 352.904 243.713 356.173 243.71H512.67C515.939 243.713 519.073 245.061 521.385 247.458C523.696 249.854 524.996 253.103 525 256.492V340.262C524.996 343.651 523.696 346.9 521.385 349.297C519.073 351.693 515.939 353.041 512.67 353.045Z" fill="#F2F2F2"/>
<path d="M315.181 164.561C314.142 160.624 312.008 157.092 309.044 154.405C306.08 151.718 302.418 149.996 298.515 149.453C298.429 149.44 298.347 149.457 298.261 149.451C298.149 149.414 298.036 149.386 297.921 149.366C279.717 146.8 258.704 156.297 251.117 175.121C247.361 169.694 241.372 166.188 234.967 166.537C226.796 166.981 219.584 173.47 217.375 182.004C217.253 182.517 217.286 183.056 217.47 183.549C217.654 184.042 217.98 184.464 218.403 184.758C219.59 185.861 221.017 186.651 222.562 187.061C225.867 187.825 229.185 188.525 232.515 189.16C239.011 190.401 245.542 191.403 252.107 192.168C265.427 193.726 278.839 194.279 292.236 193.823C296.697 193.671 301 193.51 305.088 191.362C308.093 189.729 310.635 187.31 312.46 184.344C314.217 181.425 315.367 178.157 315.836 174.751C316.304 171.344 316.081 167.874 315.181 164.561Z" fill="#3F3D56"/>
<path d="M313.174 165.559C312.19 162.067 310.224 158.958 307.528 156.629C304.725 154.258 301.338 152.747 297.75 152.266H297.533L297.331 152.228C297.267 152.207 297.201 152.191 297.135 152.18C291.132 151.441 285.048 151.892 279.208 153.509C267.982 156.57 257.351 163.817 252.387 175.507L251.679 177.184L250.619 175.721C248.989 173.412 246.865 171.527 244.414 170.212C241.964 168.897 239.252 168.188 236.493 168.142C236.224 168.142 235.955 168.147 235.681 168.164C231.944 168.413 228.374 169.855 225.459 172.291C222.545 174.728 220.43 178.04 219.403 181.773C219.351 182.043 219.382 182.323 219.492 182.574C219.601 182.825 219.784 183.034 220.013 183.172L220.096 183.236C221.139 184.152 222.373 184.803 223.7 185.139C226.911 185.846 230.179 186.5 233.411 187.084C239.678 188.221 246.11 189.159 252.522 189.872C263.862 191.134 275.265 191.683 286.669 191.517C288.339 191.496 290.006 191.458 291.669 191.405C295.951 191.271 299.999 191.137 303.836 189.223C306.585 187.811 308.933 185.683 310.651 183.048C312.277 180.5 313.345 177.614 313.781 174.593C314.217 171.572 314.01 168.488 313.174 165.559Z" fill="white"/>
<path d="M286.669 191.517C275.265 191.683 263.862 191.134 252.522 189.872C246.11 189.159 239.678 188.221 233.411 187.084C230.179 186.5 226.911 185.846 223.7 185.139C222.373 184.803 221.139 184.152 220.096 183.236L220.013 183.172C219.784 183.034 219.601 182.825 219.492 182.574C219.382 182.323 219.351 182.043 219.403 181.773C220.43 178.04 222.545 174.728 225.459 172.291C228.374 169.855 231.944 168.413 235.681 168.164C235.955 168.147 236.224 168.142 236.493 168.142C239.252 168.188 241.964 168.897 244.414 170.212C246.865 171.527 248.989 173.412 250.619 175.721L251.679 177.184L252.387 175.507C257.351 163.817 267.982 156.57 279.208 153.509C281.473 155.632 282.931 158.885 282.103 161.903C281.105 165.564 277.155 167.847 276.493 171.589C275.888 175.003 278.246 178.176 280.671 180.567C283.096 182.952 285.904 185.348 286.607 188.735C286.795 189.65 286.816 190.594 286.669 191.517Z" fill="#6C63FF"/>
<path d="M296.416 181.113C301.556 181.113 305.723 176.794 305.723 171.465C305.723 166.137 301.556 161.817 296.416 161.817C291.276 161.817 287.109 166.137 287.109 171.465C287.109 176.794 291.276 181.113 296.416 181.113Z" fill="#3F3D56"/>
<path d="M300.317 170.436L296.827 166.818C296.773 166.762 296.709 166.718 296.639 166.687C296.568 166.657 296.492 166.641 296.416 166.641C296.34 166.641 296.264 166.657 296.193 166.687C296.123 166.718 296.059 166.762 296.005 166.818L292.514 170.436C292.46 170.492 292.417 170.558 292.388 170.632C292.359 170.705 292.343 170.783 292.343 170.863C292.343 170.942 292.358 171.02 292.387 171.094C292.417 171.167 292.46 171.233 292.514 171.29C292.568 171.346 292.632 171.39 292.703 171.42C292.773 171.451 292.849 171.466 292.925 171.466C293.002 171.466 293.078 171.45 293.148 171.42C293.219 171.389 293.283 171.345 293.337 171.289L295.834 168.7V175.686C295.834 175.846 295.896 176 296.005 176.113C296.114 176.226 296.262 176.289 296.416 176.289C296.57 176.289 296.718 176.226 296.827 176.113C296.936 176 296.998 175.846 296.998 175.686V168.7L299.495 171.289C299.604 171.401 299.752 171.464 299.906 171.464C300.06 171.463 300.207 171.4 300.316 171.287C300.425 171.174 300.486 171.021 300.486 170.862C300.487 170.702 300.426 170.549 300.317 170.436Z" fill="white"/>
<path d="M465.012 79.3399H409.481C408.35 79.3386 407.266 78.8723 406.466 78.0433C405.666 77.2144 405.217 76.0905 405.215 74.9182V22.366C405.217 21.1937 405.666 20.0698 406.466 19.2408C407.266 18.4119 408.35 17.9456 409.481 17.9443H465.012C466.143 17.9456 467.227 18.4119 468.027 19.2408C468.826 20.0698 469.276 21.1937 469.278 22.366V74.9182C469.276 76.0905 468.826 77.2144 468.027 78.0433C467.227 78.8723 466.143 79.3386 465.012 79.3399Z" fill="white"/>
<path d="M465.012 80.1746H409.481C408.137 80.173 406.848 79.6187 405.897 78.6333C404.947 77.6479 404.412 76.3118 404.41 74.9183V22.366C404.412 20.9724 404.947 19.6364 405.897 18.651C406.848 17.6655 408.137 17.1113 409.481 17.1097H465.012C466.357 17.1113 467.645 17.6655 468.596 18.651C469.547 19.6364 470.081 20.9724 470.083 22.366V74.9183C470.081 76.3118 469.547 77.6479 468.596 78.6333C467.645 79.6187 466.357 80.173 465.012 80.1746ZM409.481 18.779C408.564 18.7801 407.684 19.1584 407.035 19.8308C406.387 20.5033 406.022 21.415 406.021 22.366V74.9183C406.022 75.8693 406.387 76.781 407.035 77.4535C407.684 78.1259 408.564 78.5042 409.481 78.5054H465.012C465.93 78.5042 466.809 78.1259 467.458 77.4535C468.107 76.781 468.472 75.8693 468.473 74.9183V22.366C468.472 21.415 468.107 20.5033 467.458 19.8308C466.809 19.1583 465.93 18.7801 465.012 18.7789L409.481 18.779Z" fill="#CCCCCC"/>
<path d="M425.842 42.8538C429.665 42.8538 432.764 39.6413 432.764 35.6785C432.764 31.7157 429.665 28.5032 425.842 28.5032C422.019 28.5032 418.92 31.7157 418.92 35.6785C418.92 39.6413 422.019 42.8538 425.842 42.8538Z" fill="#CCCCCC"/>
<path d="M453.511 53.7597H420.981C420.435 53.7597 419.91 53.5346 419.524 53.1339C419.137 52.7332 418.92 52.1898 418.92 51.6231C418.92 51.0564 419.137 50.5129 419.524 50.1123C419.91 49.7116 420.435 49.4865 420.981 49.4865H453.511C454.058 49.4865 454.582 49.7116 454.968 50.1123C455.355 50.5129 455.572 51.0564 455.572 51.6231C455.572 52.1898 455.355 52.7332 454.968 53.1339C454.582 53.5346 454.058 53.7597 453.511 53.7597Z" fill="#CCCCCC"/>
<path d="M436.678 62.2027H420.981C420.435 62.2027 419.91 61.9776 419.524 61.5769C419.137 61.1761 418.92 60.6327 418.92 60.066C418.92 59.4993 419.137 58.9558 419.524 58.555C419.91 58.1543 420.435 57.9292 420.981 57.9292H436.678C436.949 57.9286 437.218 57.9835 437.469 58.0906C437.719 58.1978 437.947 58.3551 438.139 58.5536C438.33 58.752 438.483 58.9878 438.587 59.2473C438.69 59.5068 438.744 59.785 438.744 60.066C438.744 60.3469 438.69 60.6251 438.587 60.8846C438.483 61.1442 438.33 61.3799 438.139 61.5784C437.947 61.7768 437.719 61.9341 437.469 62.0413C437.218 62.1484 436.949 62.2033 436.678 62.2027Z" fill="#CCCCCC"/>
<path d="M408.323 94.7635C405.433 94.7635 402.607 93.875 400.203 92.2102C397.8 90.5455 395.926 88.1793 394.82 85.4109C393.714 82.6425 393.425 79.5963 393.989 76.6574C394.553 73.7185 395.944 71.0189 397.988 68.9001C400.032 66.7813 402.637 65.3383 405.472 64.7538C408.307 64.1692 411.246 64.4692 413.916 65.6159C416.587 66.7626 418.869 68.7045 420.475 71.196C422.081 73.6874 422.939 76.6166 422.939 79.6131C422.939 83.6312 421.399 87.4848 418.658 90.3261C415.917 93.1673 412.199 94.7635 408.323 94.7635Z" fill="#CCCCCC"/>
<path d="M414.09 78.1186H409.765V73.6351C409.764 73.2393 409.612 72.8601 409.342 72.5806C409.071 72.3011 408.705 72.1441 408.323 72.1441C407.942 72.1441 407.575 72.3011 407.305 72.5806C407.035 72.8601 406.883 73.2393 406.882 73.6351V78.1186H402.556C402.174 78.1186 401.807 78.2761 401.537 78.5563C401.267 78.8366 401.115 79.2167 401.115 79.6131C401.115 80.0095 401.267 80.3896 401.537 80.6699C401.807 80.9501 402.174 81.1076 402.556 81.1076H406.882V85.591C406.882 85.9874 407.034 86.3676 407.304 86.6478C407.574 86.9281 407.941 87.0856 408.323 87.0856C408.706 87.0856 409.072 86.9281 409.343 86.6478C409.613 86.3676 409.765 85.9874 409.765 85.591V81.1076H414.09C414.473 81.1076 414.839 80.9501 415.11 80.6698C415.38 80.3896 415.532 80.0094 415.532 79.6131C415.532 79.2167 415.38 78.8366 415.11 78.5563C414.839 78.276 414.473 78.1186 414.09 78.1186Z" fill="white"/>
<path d="M407.353 317.921C407.323 317.921 407.294 317.92 407.265 317.919C406.921 317.906 406.586 317.808 406.287 317.631C405.988 317.455 405.735 317.207 405.548 316.907C404.153 314.745 402.44 312.821 400.472 311.207C399.28 310.22 398.035 309.302 396.831 308.414C393.725 306.125 390.8 303.969 389.177 300.989C385.636 294.493 389.805 285.444 395.761 281.386C402.442 276.835 411.229 276.121 419.729 276.028C420.612 276.018 421.496 276.013 422.381 276.013C437.696 276.019 452.98 277.468 468.043 280.341C473.052 281.299 478.295 282.473 482.508 285.321C486.696 288.152 489.241 292.61 488.993 296.679C488.631 302.618 482.556 307.057 477.025 308.217C471.753 309.322 466.276 308.575 460.478 307.784C459.198 307.61 457.875 307.429 456.566 307.273C442.342 305.568 415.621 310.821 414.49 311.046L413.369 311.268L409.017 317.073C408.821 317.338 408.569 317.552 408.281 317.699C407.992 317.846 407.674 317.922 407.353 317.921Z" fill="white"/>
<path d="M407.353 318.756L407.244 318.754C406.771 318.738 406.308 318.603 405.895 318.361C405.483 318.119 405.133 317.778 404.875 317.365C403.526 315.276 401.871 313.419 399.969 311.859C398.792 310.883 397.558 309.974 396.365 309.095C393.187 306.752 390.187 304.541 388.476 301.4C384.717 294.503 389.066 284.95 395.319 280.688C402.172 276.02 411.097 275.289 419.72 275.193C420.607 275.183 421.493 275.179 422.381 275.179C437.746 275.184 453.078 276.638 468.189 279.52C473.278 280.494 478.609 281.688 482.948 284.621C487.374 287.614 490.063 292.367 489.797 296.731C489.409 303.085 483.009 307.813 477.185 309.035C471.779 310.168 466.238 309.413 460.373 308.612C459.097 308.438 457.778 308.259 456.473 308.101C442.334 306.411 415.766 311.642 414.642 311.866L413.818 312.029L409.653 317.585C409.382 317.95 409.033 318.246 408.634 318.449C408.236 318.652 407.797 318.757 407.353 318.756ZM422.381 276.848C421.499 276.848 420.618 276.853 419.737 276.863C411.359 276.955 402.709 277.652 396.204 282.084C390.545 285.939 386.556 294.483 389.878 300.578C391.413 303.396 394.271 305.503 397.296 307.733C398.509 308.627 399.762 309.551 400.974 310.555C403.008 312.224 404.779 314.213 406.221 316.449C406.338 316.637 406.497 316.793 406.684 316.904C406.871 317.015 407.082 317.077 407.297 317.086L407.353 317.087C407.552 317.088 407.748 317.041 407.927 316.95C408.105 316.859 408.261 316.726 408.381 316.562L412.919 310.508L414.339 310.226C415.472 310.001 442.276 304.717 456.658 306.444C457.971 306.601 459.299 306.782 460.583 306.957C466.311 307.74 471.722 308.478 476.865 307.399C482.103 306.3 487.852 302.151 488.19 296.625C488.42 292.852 486.017 288.689 482.068 286.02C477.979 283.256 472.825 282.104 467.897 281.162C452.882 278.298 437.647 276.854 422.381 276.848Z" fill="#CCCCCC"/>
<path d="M470.694 288.944H410.574C410.227 288.943 409.895 288.8 409.651 288.546C409.406 288.292 409.269 287.947 409.269 287.588C409.269 287.229 409.406 286.885 409.651 286.631C409.895 286.377 410.227 286.233 410.574 286.232H470.694C471.04 286.233 471.372 286.377 471.617 286.631C471.861 286.885 471.999 287.229 471.999 287.588C471.999 287.947 471.861 288.292 471.617 288.546C471.372 288.8 471.04 288.943 470.694 288.944Z" fill="#CCCCCC"/>
<path d="M470.694 297.268H410.574C410.402 297.268 410.231 297.234 410.072 297.166C409.913 297.098 409.768 296.998 409.646 296.872C409.525 296.747 409.428 296.597 409.362 296.433C409.296 296.268 409.261 296.091 409.261 295.913C409.261 295.735 409.295 295.558 409.361 295.393C409.426 295.228 409.523 295.079 409.644 294.953C409.766 294.827 409.911 294.727 410.07 294.658C410.228 294.59 410.399 294.555 410.571 294.556H470.694C471.04 294.556 471.372 294.7 471.617 294.954C471.861 295.208 471.999 295.553 471.999 295.912C471.999 296.271 471.861 296.615 471.617 296.869C471.372 297.123 471.04 297.267 470.694 297.268Z" fill="#CCCCCC"/>
<path d="M417.58 305.591H410.574C410.227 305.59 409.895 305.446 409.651 305.192C409.406 304.938 409.269 304.594 409.269 304.235C409.269 303.875 409.406 303.531 409.651 303.277C409.895 303.023 410.227 302.879 410.574 302.879H417.58C417.926 302.879 418.258 303.023 418.503 303.277C418.747 303.531 418.885 303.875 418.885 304.235C418.885 304.594 418.747 304.938 418.503 305.192C418.258 305.446 417.926 305.59 417.58 305.591Z" fill="#CCCCCC"/>
<path d="M407.29 333.15C412.1 333.15 416 329.108 416 324.122C416 319.135 412.1 315.093 407.29 315.093C402.48 315.093 398.58 319.135 398.58 324.122C398.58 329.108 402.48 333.15 407.29 333.15Z" fill="white"/>
<path d="M407.29 333.261C405.546 333.261 403.842 332.725 402.392 331.721C400.942 330.716 399.812 329.289 399.145 327.619C398.477 325.949 398.303 324.112 398.643 322.339C398.983 320.566 399.823 318.938 401.056 317.66C402.289 316.382 403.86 315.511 405.57 315.159C407.28 314.806 409.053 314.987 410.663 315.679C412.274 316.37 413.651 317.542 414.62 319.044C415.589 320.547 416.106 322.314 416.106 324.122C416.103 326.545 415.173 328.868 413.521 330.581C411.868 332.294 409.627 333.258 407.29 333.261Z" fill="#CCCCCC"/>
<path d="M406.638 327.73C406.619 327.73 406.601 327.729 406.582 327.728C406.418 327.72 406.258 327.675 406.112 327.597C405.966 327.518 405.839 327.408 405.738 327.274L404.282 325.334C404.19 325.212 404.123 325.072 404.083 324.922C404.043 324.772 404.032 324.616 404.051 324.462C404.069 324.308 404.117 324.16 404.191 324.025C404.265 323.89 404.364 323.771 404.482 323.676L404.534 323.634C404.652 323.539 404.788 323.468 404.932 323.427C405.076 323.386 405.227 323.375 405.376 323.394C405.524 323.413 405.668 323.463 405.798 323.539C405.928 323.616 406.042 323.719 406.134 323.841C406.207 323.939 406.3 324.019 406.407 324.076C406.513 324.133 406.63 324.166 406.749 324.172C406.869 324.178 406.988 324.157 407.099 324.111C407.21 324.065 407.31 323.995 407.393 323.905L410.348 320.67C410.556 320.443 410.842 320.311 411.145 320.302C411.447 320.294 411.739 320.41 411.959 320.625L412.008 320.673C412.116 320.78 412.204 320.907 412.265 321.049C412.326 321.191 412.359 321.343 412.363 321.499C412.367 321.654 412.342 321.808 412.288 321.953C412.235 322.098 412.154 322.23 412.051 322.343L407.465 327.361C407.358 327.478 407.23 327.571 407.088 327.634C406.946 327.697 406.793 327.73 406.638 327.73Z" fill="white"/>
<path d="M132.717 279.114C132.368 279.116 132.02 279.15 131.678 279.216L125.976 241.798L131.688 205.777C132.048 203.511 131.565 201.188 130.337 199.277C129.109 197.365 127.228 196.008 125.072 195.478C122.917 194.948 120.647 195.285 118.722 196.421C116.797 197.557 115.359 199.407 114.698 201.599C112.557 208.702 111.497 216.108 111.558 223.55L111.757 248.115L126.957 285.843C127.09 286.994 127.541 288.081 128.256 288.972C128.971 289.864 129.918 290.522 130.986 290.868C132.053 291.215 133.194 291.234 134.271 290.924C135.349 290.613 136.316 289.987 137.059 289.12C137.801 288.253 138.285 287.182 138.454 286.036C138.623 284.89 138.468 283.718 138.01 282.661C137.551 281.604 136.807 280.707 135.868 280.078C134.929 279.448 133.835 279.114 132.717 279.114Z" fill="#FFB8B8"/>
<path d="M108.51 207.231C108.509 205.357 108.864 203.5 109.555 201.768C110.246 200.035 111.26 198.461 112.538 197.135C113.816 195.809 115.334 194.757 117.005 194.039C118.675 193.322 120.466 192.952 122.274 192.952C124.083 192.952 125.874 193.322 127.544 194.039C129.215 194.757 130.733 195.809 132.011 197.135C133.289 198.461 134.303 200.035 134.994 201.768C135.685 203.5 136.04 205.357 136.039 207.231L127.092 239.946L111.555 239.146L108.51 207.231Z" fill="#2F2E41"/>
<path d="M141.156 494.2L150.039 494.2L154.265 458.681L141.154 458.681L141.156 494.2Z" fill="#FFB8B8"/>
<path d="M165.538 504.58L152.189 495.023V488.789L150.675 488.881L141.159 489.473L138.147 489.657L136.432 510.973L136.376 511.682H142.681L142.809 510.973L143.808 505.515L146.36 510.973L146.69 511.682H163.405C164.4 511.68 165.354 511.27 166.059 510.541C166.763 509.813 167.161 508.825 167.165 507.793C167.165 507.161 167.018 506.538 166.734 505.978C166.451 505.418 166.041 504.939 165.538 504.58Z" fill="#2F2E41"/>
<path d="M87.8784 472.974L94.9371 478.565L119.1 453.003L108.683 444.751L87.8784 472.974Z" fill="#FFB8B8"/>
<path d="M101.173 496.568L96.1637 480.573L99.8156 475.619L98.5589 474.739L90.6501 469.22L88.1498 467.47L74.3015 483.328L73.8413 483.856L78.8505 487.824L79.3682 487.341L83.3589 483.633L82.1896 489.576L82.0364 490.348L95.3173 500.868C96.1093 501.493 97.1075 501.768 98.0941 501.632C99.0807 501.496 99.9755 500.962 100.583 500.145C100.954 499.643 101.201 499.055 101.304 498.432C101.407 497.808 101.362 497.169 101.173 496.568Z" fill="#2F2E41"/>
<path d="M123.916 319.535L132.797 347.787C132.797 347.787 135.953 377.933 139.327 384.61C139.957 385.967 140.391 387.413 140.615 388.9C140.712 389.401 140.784 389.927 140.849 390.453C140.978 391.496 141.066 392.573 141.122 393.658C141.291 398.268 141.1 402.884 140.551 407.462C138.957 408.898 137.789 421.843 136.976 437.809C136.887 439.47 136.804 441.159 136.726 442.875C136.565 446.339 136.42 449.895 136.292 453.467C135.366 478.288 135.881 472.98 135.881 472.98C158.393 477.262 157.467 469.542 157.467 469.542C157.467 469.542 165.196 433.745 167.193 417.436C167.435 415.533 167.58 414.315 167.612 413.964C167.7 412.239 168.006 410.533 168.522 408.89C168.958 408.244 169.349 407.566 169.689 406.861L169.692 406.861L169.695 406.859L169.697 406.856L169.697 406.853C171.29 403.269 172.187 399.395 172.338 395.452C172.452 393.743 172.458 392.029 172.354 390.319C172.227 380.315 173.044 370.321 174.794 360.481C176.203 353.763 175.285 340.776 174.037 329.651C173.53 325.06 172.958 320.787 172.483 317.407C172.459 317.265 172.443 317.123 172.427 316.981C171.815 312.733 171.364 309.995 171.364 309.995C171.364 309.995 173.417 302.701 171.895 300.005C171.195 298.795 171.291 295.94 171.589 293.119C171.96 289.68 172.652 286.476 172.652 286.476L130.841 278.839C129.963 280.349 129.182 281.81 128.417 283.221C114.593 309.703 123.916 319.535 123.916 319.535Z" fill="#2F2E41"/>
<path d="M111.967 198.68C112.432 197.35 113.213 196.162 114.236 195.227C115.26 194.292 116.495 193.639 117.826 193.328C119.8 192.747 121.854 192.514 123.902 192.64C129.897 192.885 134.122 181.192 140.059 182.093C140.059 182.093 145.647 180.026 150.019 183.814C153.99 187.255 156.728 196.614 157.747 196.081C158.23 195.968 158.73 195.969 159.212 196.082C163.316 196.68 167.051 198.863 169.67 202.193C172.288 205.523 173.597 209.755 173.335 214.043L172.903 221.634C172.903 221.634 175.957 226.4 171.525 234.814L174.098 264.496C174.098 264.496 178.384 305.847 171.943 311.731C165.503 317.616 141.779 291.958 141.779 291.958C141.779 291.958 123.553 288.947 124.632 285.454C125.711 281.961 131.371 272.273 131.371 272.273C131.503 271.733 131.487 271.166 131.326 270.634C131.165 270.102 130.864 269.627 130.458 269.262C129.08 268.35 130.624 266.285 130.74 266.096C130.608 266.234 129.562 267.369 128.765 264.978C127.968 262.586 130.425 259.575 130.425 259.575L123.487 244.088L118.025 231.854L117.361 230.443L112.763 220.601L112.657 220.372C110.23 215.127 109.692 209.154 111.142 203.533C111.621 201.96 111.899 200.328 111.967 198.68Z" fill="#6C63FF"/>
<path d="M97.5317 451.781C114.045 468.206 117.371 461.22 117.371 461.22C117.371 461.22 126.3 450.562 136.976 437.809C140.808 433.236 144.858 428.395 148.803 423.679C154.254 417.161 159.496 410.884 163.666 405.893C168.28 400.36 171.565 396.404 172.338 395.452C172.452 393.743 172.457 392.029 172.354 390.319C172.227 380.315 173.044 370.321 174.794 360.482C176.203 353.763 175.285 340.776 174.037 329.651C172.169 333.682 170.011 338.464 168.224 342.879C166.227 347.795 164.673 352.244 164.431 354.664C163.666 362.117 153.32 374.436 153.32 374.436L153.2 374.461C151.501 374.929 146.71 380.704 140.615 388.9C123.965 411.285 97.5317 451.781 97.5317 451.781Z" fill="#2F2E41"/>
<path d="M232.867 190.807C232.908 191.166 232.98 191.52 233.082 191.866L197.868 201.992L162.695 200.204C160.482 200.091 158.311 200.853 156.619 202.335C154.926 203.816 153.839 205.908 153.576 208.189C153.313 210.469 153.894 212.767 155.202 214.621C156.509 216.474 158.447 217.745 160.622 218.176C167.674 219.574 174.892 219.824 182.017 218.916L205.539 215.918L239.971 195.974C241.059 195.706 242.049 195.118 242.822 194.281C243.595 193.443 244.119 192.392 244.329 191.254C244.54 190.115 244.428 188.938 244.008 187.864C243.589 186.79 242.878 185.864 241.963 185.198C241.048 184.533 239.966 184.155 238.849 184.112C237.731 184.068 236.626 184.36 235.665 184.953C234.704 185.545 233.928 186.413 233.432 187.452C232.935 188.491 232.739 189.656 232.867 190.807Z" fill="#FFB8B8"/>
<path d="M166.724 223.909C164.928 224.123 163.108 223.968 161.37 223.453C159.631 222.938 158.008 222.073 156.592 220.907C155.176 219.741 153.996 218.298 153.118 216.659C152.241 215.021 151.683 213.219 151.478 211.356C151.272 209.494 151.422 207.608 151.92 205.807C152.418 204.005 153.253 202.322 154.379 200.855C155.504 199.388 156.897 198.165 158.478 197.256C160.059 196.347 161.798 195.77 163.594 195.558L195.966 201.053L196.965 217.145L166.724 223.909Z" fill="#2F2E41"/>
<path d="M161.083 169.582C159.085 173.368 155.903 176.336 152.061 177.997C148.219 179.659 143.946 179.914 139.945 178.721C135.944 177.529 132.454 174.959 130.051 171.436C127.647 167.913 126.472 163.646 126.72 159.339C126.968 155.031 128.623 150.939 131.414 147.737C134.205 144.535 137.965 142.414 142.074 141.723C146.183 141.032 150.397 141.812 154.021 143.935C157.646 146.058 160.464 149.397 162.013 153.402C162.097 153.62 162.173 153.837 162.248 154.063C163.124 156.588 163.473 159.277 163.272 161.952C163.071 164.627 162.325 167.228 161.083 169.582Z" fill="#FFB6B6"/>
<path d="M163.716 154.063C162.927 151.777 163.271 152.968 162.475 150.69C162.731 151.812 162.652 152.988 162.248 154.063H140.434V140.918C146.825 138.292 153.073 136.058 156.847 140.918C160.21 140.918 163.435 142.303 165.814 144.768C168.192 147.233 169.528 150.577 169.528 154.063H163.716Z" fill="#2F2E41"/>
<path d="M155.983 190.604C155.966 190.36 155.941 190.108 155.908 189.865C155.615 188.079 155.139 186.33 154.49 184.648C153.861 182.814 153.224 180.971 152.586 179.136C153.407 182.466 153.157 185.983 151.874 189.152C148.192 186.179 150.515 179.38 145.701 179.38C134.127 179.38 122.217 169.651 122.217 157.645C122.217 145.647 127.182 136.675 138.756 136.675C150.339 136.675 159.732 142.17 159.959 154.167C145.701 157.645 158.675 189.387 155.983 190.604Z" fill="#2F2E41"/>
<path d="M123.664 155.806C131.075 155.806 137.083 149.578 137.083 141.896C137.083 134.213 131.075 127.985 123.664 127.985C116.252 127.985 110.244 134.213 110.244 141.896C110.244 149.578 116.252 155.806 123.664 155.806Z" fill="#2F2E41"/>
<path d="M4.2428e-06 511.007C-0.000371011 511.137 0.0241493 511.267 0.0721696 511.387C0.12019 511.508 0.190746 511.618 0.279796 511.71C0.368846 511.802 0.474618 511.875 0.591038 511.925C0.707458 511.975 0.832223 512 0.958155 512H226.633C226.887 512 227.131 511.895 227.31 511.709C227.49 511.523 227.591 511.27 227.591 511.007C227.591 510.743 227.49 510.491 227.31 510.304C227.131 510.118 226.887 510.014 226.633 510.014H0.958155C0.832224 510.013 0.707481 510.039 0.591063 510.088C0.474645 510.138 0.368869 510.211 0.27982 510.304C0.190771 510.396 0.120192 510.506 0.0721696 510.626C0.0241477 510.747 -0.000366737 510.876 4.2428e-06 511.007Z" fill="#CCCCCC"/>
</g>
<defs>
<clipPath id="clip0_2_97">
<rect width="525" height="512" fill="white"/>
</clipPath>
</defs>
</svg>
