<svg width="575" height="397" viewBox="0 0 575 397" fill="none" xmlns="http://www.w3.org/2000/svg">
<g clip-path="url(#clip0_2_26)">
<path d="M366.419 297.619V393.319H114.703C86.023 393.319 62.689 371.853 62.689 345.469C62.689 319.085 86.023 297.619 114.703 297.619H366.419Z" fill="#F2F2F2"/>
<path d="M372.602 392.583C372.601 393.559 372.194 394.495 371.469 395.185C370.745 395.876 369.762 396.263 368.737 396.264H110.219C96.1786 396.264 82.7131 390.951 72.7849 381.494C62.8567 372.037 57.2791 359.211 57.2791 345.837C57.2791 332.463 62.8567 319.637 72.7849 310.18C82.7131 300.723 96.1786 295.41 110.219 295.41H368.737C369.762 295.41 370.745 295.798 371.47 296.488C372.195 297.179 372.602 298.115 372.602 299.091C372.602 300.067 372.195 301.003 371.47 301.694C370.745 302.384 369.762 302.772 368.737 302.772H110.219C98.2284 302.772 86.7286 307.309 78.2497 315.385C69.7709 323.462 65.0075 334.415 65.0075 345.837C65.0075 357.259 69.7709 368.212 78.2497 376.289C86.7286 384.365 98.2284 388.902 110.219 388.902H368.737C369.762 388.903 370.745 389.291 371.469 389.981C372.194 390.671 372.601 391.607 372.602 392.583Z" fill="#6C63FF"/>
<path d="M366.419 319.703H95.9215C95.7166 319.703 95.52 319.626 95.3751 319.488C95.2301 319.35 95.1487 319.162 95.1487 318.967C95.1487 318.772 95.2301 318.585 95.3751 318.447C95.52 318.309 95.7166 318.231 95.9215 318.231H366.419C366.624 318.231 366.82 318.309 366.965 318.447C367.11 318.585 367.192 318.772 367.192 318.967C367.192 319.162 367.11 319.35 366.965 319.488C366.82 319.626 366.624 319.703 366.419 319.703Z" fill="#CCCCCC"/>
<path d="M366.419 337.371H95.9215C95.7166 337.371 95.52 337.294 95.3751 337.156C95.2301 337.017 95.1487 336.83 95.1487 336.635C95.1487 336.44 95.2301 336.253 95.3751 336.114C95.52 335.976 95.7166 335.899 95.9215 335.899H366.419C366.624 335.899 366.82 335.976 366.965 336.114C367.11 336.253 367.192 336.44 367.192 336.635C367.192 336.83 367.11 337.017 366.965 337.156C366.82 337.294 366.624 337.371 366.419 337.371Z" fill="#CCCCCC"/>
<path d="M366.419 355.039H95.9215C95.7166 355.039 95.52 354.961 95.3751 354.823C95.2301 354.685 95.1487 354.498 95.1487 354.303C95.1487 354.108 95.2301 353.92 95.3751 353.782C95.52 353.644 95.7166 353.567 95.9215 353.567H366.419C366.624 353.567 366.82 353.644 366.965 353.782C367.11 353.92 367.192 354.108 367.192 354.303C367.192 354.498 367.11 354.685 366.965 354.823C366.82 354.961 366.624 355.039 366.419 355.039Z" fill="#CCCCCC"/>
<path d="M366.419 372.707H95.9215C95.7166 372.707 95.52 372.629 95.3751 372.491C95.2301 372.353 95.1487 372.166 95.1487 371.971C95.1487 371.775 95.2301 371.588 95.3751 371.45C95.52 371.312 95.7166 371.234 95.9215 371.234H366.419C366.624 371.234 366.82 371.312 366.965 371.45C367.11 371.588 367.192 371.775 367.192 371.971C367.192 372.166 367.11 372.353 366.965 372.491C366.82 372.629 366.624 372.707 366.419 372.707Z" fill="#CCCCCC"/>
<path d="M560.958 315.633L497.921 390.153L301.915 239.719C279.583 222.579 275.552 191.919 292.931 171.374C310.31 150.829 342.62 148.059 364.952 165.199L560.958 315.633Z" fill="#F2F2F2"/>
<path d="M503.221 393.275C502.577 394.035 501.644 394.52 500.625 394.625C499.606 394.729 498.585 394.444 497.787 393.832L296.484 239.333C285.551 230.941 278.565 218.757 277.063 205.46C275.562 192.162 279.667 178.841 288.476 168.427C297.286 158.013 310.078 151.359 324.038 149.928C337.998 148.498 351.983 152.409 362.916 160.8L564.219 315.299C564.614 315.602 564.943 315.977 565.187 316.401C565.43 316.825 565.583 317.291 565.638 317.772C565.692 318.253 565.647 318.739 565.504 319.203C565.361 319.667 565.123 320.099 564.805 320.476C564.486 320.852 564.093 321.166 563.648 321.397C563.202 321.629 562.713 321.775 562.208 321.826C561.703 321.878 561.193 321.834 560.706 321.698C560.219 321.561 559.765 321.335 559.37 321.031L358.067 166.532C353.444 162.981 348.132 160.332 342.434 158.737C336.736 157.142 330.764 156.632 324.859 157.236C318.954 157.84 313.232 159.546 308.02 162.257C302.807 164.968 298.207 168.631 294.481 173.035C290.754 177.44 287.976 182.501 286.304 187.929C284.631 193.357 284.098 199.046 284.735 204.67C285.371 210.294 287.164 215.744 290.012 220.708C292.86 225.672 296.707 230.053 301.333 233.6L502.636 388.099C503.434 388.712 503.943 389.602 504.053 390.572C504.163 391.542 503.863 392.515 503.221 393.275Z" fill="#CCCCCC"/>
<path d="M546.412 332.83L335.781 171.172C335.702 171.111 335.636 171.036 335.587 170.951C335.539 170.866 335.508 170.773 335.497 170.677C335.486 170.581 335.495 170.484 335.524 170.391C335.553 170.298 335.6 170.212 335.664 170.136C335.727 170.061 335.806 169.999 335.895 169.952C335.984 169.906 336.082 169.877 336.183 169.866C336.284 169.856 336.386 169.865 336.483 169.892C336.581 169.919 336.671 169.964 336.75 170.025L547.381 331.684C547.461 331.744 547.526 331.819 547.575 331.904C547.624 331.989 547.655 332.082 547.666 332.178C547.676 332.274 547.667 332.372 547.639 332.465C547.61 332.557 547.563 332.644 547.499 332.719C547.435 332.795 547.357 332.857 547.267 332.904C547.178 332.95 547.08 332.979 546.979 332.989C546.878 333 546.776 332.991 546.679 332.964C546.581 332.936 546.491 332.891 546.412 332.83Z" fill="#CCCCCC"/>
<path d="M534.774 346.588L324.143 184.929C323.984 184.807 323.882 184.629 323.86 184.435C323.838 184.241 323.898 184.047 324.027 183.895C324.155 183.743 324.342 183.646 324.545 183.625C324.749 183.604 324.953 183.66 325.113 183.783L535.744 345.441C535.823 345.502 535.889 345.577 535.937 345.662C535.986 345.746 536.017 345.84 536.028 345.936C536.039 346.032 536.03 346.129 536.001 346.222C535.973 346.315 535.925 346.402 535.861 346.477C535.798 346.552 535.719 346.615 535.63 346.661C535.541 346.708 535.443 346.737 535.342 346.747C535.241 346.757 535.139 346.748 535.041 346.721C534.944 346.694 534.853 346.648 534.774 346.588Z" fill="#CCCCCC"/>
<path d="M523.136 360.345L312.505 198.687C312.346 198.564 312.244 198.386 312.222 198.192C312.2 197.998 312.26 197.804 312.388 197.652C312.517 197.5 312.704 197.402 312.907 197.382C313.111 197.361 313.315 197.418 313.475 197.54L524.106 359.199C524.185 359.259 524.251 359.334 524.299 359.419C524.348 359.504 524.379 359.597 524.389 359.693C524.4 359.789 524.391 359.887 524.363 359.979C524.334 360.072 524.287 360.159 524.223 360.234C524.159 360.309 524.081 360.372 523.992 360.418C523.902 360.464 523.805 360.494 523.704 360.504C523.603 360.514 523.501 360.506 523.403 360.478C523.306 360.451 523.215 360.406 523.136 360.345Z" fill="#CCCCCC"/>
<path d="M511.498 374.103L300.868 212.444C300.789 212.384 300.723 212.309 300.674 212.224C300.626 212.139 300.595 212.046 300.584 211.95C300.573 211.854 300.582 211.756 300.611 211.664C300.639 211.571 300.687 211.484 300.751 211.409C300.814 211.334 300.893 211.271 300.982 211.225C301.071 211.179 301.169 211.149 301.27 211.139C301.371 211.129 301.473 211.137 301.57 211.165C301.668 211.192 301.758 211.237 301.837 211.298L512.468 372.956C512.547 373.017 512.613 373.092 512.662 373.177C512.711 373.262 512.742 373.355 512.752 373.451C512.763 373.547 512.754 373.644 512.726 373.737C512.697 373.83 512.65 373.917 512.586 373.992C512.522 374.067 512.444 374.13 512.354 374.176C512.265 374.223 512.167 374.252 512.066 374.262C511.965 374.272 511.863 374.264 511.766 374.236C511.668 374.209 511.577 374.164 511.498 374.103Z" fill="#CCCCCC"/>
<path d="M574.227 397H0.772849C0.567877 397 0.371299 396.922 0.226362 396.784C0.0814244 396.646 0 396.459 0 396.264C0 396.069 0.0814244 395.881 0.226362 395.743C0.371299 395.605 0.567877 395.528 0.772849 395.528H574.227C574.432 395.528 574.629 395.605 574.774 395.743C574.919 395.881 575 396.069 575 396.264C575 396.459 574.919 396.646 574.774 396.784C574.629 396.922 574.432 397 574.227 397Z" fill="#CCCCCC"/>
<path d="M261.286 287.56L252.451 287.559L248.249 255.097L261.289 255.099L261.286 287.56Z" fill="#FFB8B8"/>
<path d="M246.139 285.154H263.179V295.374H235.41C235.41 294.032 235.688 292.703 236.227 291.463C236.766 290.223 237.556 289.097 238.553 288.148C239.549 287.199 240.732 286.446 242.033 285.932C243.335 285.419 244.73 285.154 246.139 285.154Z" fill="#2F2E41"/>
<path d="M171.021 287.56L162.186 287.559L157.984 255.097L171.024 255.099L171.021 287.56Z" fill="#FFB8B8"/>
<path d="M155.874 285.154H172.914V295.374H145.146C145.146 294.032 145.423 292.703 145.962 291.463C146.502 290.223 147.292 289.097 148.288 288.148C149.284 287.199 150.467 286.446 151.769 285.932C153.07 285.419 154.465 285.154 155.874 285.154Z" fill="#2F2E41"/>
<path d="M200.532 46.7704V43.0896C200.532 36.793 203.158 30.7544 207.832 26.3021C212.506 21.8498 218.846 19.3485 225.456 19.3485C232.067 19.3485 238.406 21.8498 243.081 26.3021C247.755 30.7544 250.381 36.793 250.381 43.0896V46.7704C250.381 51.3098 248.488 55.6632 245.118 58.8731C241.748 62.0829 237.178 63.8861 232.412 63.8861H218.501C216.141 63.8861 213.805 63.4434 211.624 62.5833C209.444 61.7231 207.463 60.4624 205.795 58.8731C204.126 57.2837 202.803 55.3969 201.9 53.3203C200.997 51.2437 200.532 49.0181 200.532 46.7704Z" fill="#2F2E41"/>
<path d="M225.456 65.1526C235.94 65.1526 244.438 57.0576 244.438 47.0718C244.438 37.0861 235.94 28.991 225.456 28.991C214.973 28.991 206.474 37.0861 206.474 47.0718C206.474 57.0576 214.973 65.1526 225.456 65.1526Z" fill="#FFB8B8"/>
<path d="M122.206 109.213C122.977 108.52 123.897 107.997 124.903 107.679C125.909 107.362 126.975 107.259 128.027 107.376C129.08 107.494 130.092 107.83 130.993 108.361C131.894 108.892 132.662 109.604 133.243 110.448L149.515 107.516L153.797 116.501L130.757 120.334C129.204 121.169 127.383 121.433 125.639 121.075C123.895 120.717 122.35 119.762 121.296 118.391C120.242 117.02 119.753 115.329 119.92 113.637C120.088 111.946 120.902 110.372 122.206 109.213Z" fill="#FFB8B8"/>
<path d="M210.87 76.8464L184.187 93.5899L139.162 107.285C138.565 107.468 138.053 107.842 137.714 108.343C137.374 108.845 137.227 109.444 137.298 110.037L138.28 118.095C138.324 118.452 138.445 118.796 138.637 119.105C138.828 119.415 139.085 119.683 139.391 119.892C139.698 120.101 140.046 120.247 140.416 120.32C140.785 120.394 141.166 120.393 141.534 120.317L183.909 111.665C185.96 111.249 187.899 110.436 189.606 109.276L219.584 88.9606C220.67 88.2201 221.537 87.2243 222.101 86.0701C222.664 84.9159 222.904 83.6426 222.797 82.3738C222.687 81.1034 222.232 79.8821 221.476 78.83C220.721 77.778 219.69 76.9315 218.487 76.3738C217.283 75.8161 215.948 75.5664 214.613 75.6493C213.277 75.7321 211.988 76.1447 210.87 76.8464Z" fill="#CCCCCC"/>
<path d="M252.608 278.348C251.93 278.348 251.267 278.16 250.699 277.807C250.131 277.454 249.683 276.951 249.41 276.359L208.905 181.026C208.811 180.819 208.652 180.645 208.45 180.527C208.249 180.409 208.014 180.352 207.778 180.365C207.541 180.377 207.315 180.459 207.128 180.598C206.942 180.737 206.804 180.927 206.735 181.143L173.689 273.953C173.55 274.385 173.319 274.785 173.011 275.129C172.703 275.473 172.325 275.753 171.899 275.952C171.473 276.152 171.009 276.266 170.535 276.288C170.061 276.31 169.588 276.24 169.144 276.081L158.062 272.123C157.461 271.91 156.933 271.542 156.538 271.061C156.142 270.58 155.895 270.003 155.823 269.396C150.838 228.029 194.311 123.614 194.751 122.565L194.873 122.274L234.502 130.624L234.585 130.71C250.395 147.139 263.391 250.764 265.836 271.37C265.927 272.115 265.749 272.866 265.332 273.501C264.915 274.137 264.282 274.617 263.54 274.865L253.758 278.16C253.389 278.284 253 278.348 252.608 278.348Z" fill="#2F2E41"/>
<path d="M218.463 133.985C208.862 133.985 198.157 132.162 194.862 124.635L194.786 124.462L194.889 124.302C197.49 120.237 200.927 113.304 199.079 112.002C195.44 109.439 193.674 105.222 193.831 99.4686C194.171 86.9791 203.105 75.8903 216.062 71.8756C219.679 70.7731 223.36 69.8705 227.086 69.1722C229.802 68.6501 232.606 68.7075 235.296 69.3403C237.986 69.9731 240.496 71.1656 242.645 72.8321C244.821 74.5095 246.58 76.6252 247.795 79.0271C249.011 81.429 249.653 84.0576 249.675 86.7239C249.811 100.071 247.653 118.661 236.604 131.424C236.086 132.016 235.366 132.415 234.569 132.551C229.254 133.467 223.865 133.947 218.463 133.985Z" fill="#CCCCCC"/>
<path d="M214.892 133.485C215.414 131.7 216.655 130.183 218.345 129.264C220.036 128.346 222.038 128.1 223.917 128.579C224.301 128.682 224.675 128.814 225.036 128.974L237.392 118.264L245.984 123.778L228.315 138.671C227.518 140.041 226.262 141.118 224.747 141.73C223.233 142.342 221.547 142.453 219.958 142.048C219.033 141.806 218.167 141.393 217.41 140.831C216.654 140.269 216.021 139.569 215.55 138.773C215.079 137.977 214.778 137.1 214.665 136.192C214.552 135.284 214.629 134.364 214.892 133.485Z" fill="#FFB8B8"/>
<path d="M235.434 133.621C234.633 133.622 233.856 133.358 233.235 132.874L228.363 129.081C227.957 128.765 227.631 128.366 227.41 127.913C227.189 127.459 227.078 126.965 227.086 126.465C227.094 125.966 227.221 125.474 227.457 125.028C227.692 124.581 228.031 124.192 228.447 123.888L248.883 108.958C249.125 108.781 249.284 108.519 249.325 108.23C249.366 107.942 249.286 107.649 249.102 107.416L236.489 91.533C235.023 89.6937 234.288 87.42 234.414 85.1141C234.539 82.8083 235.517 80.6192 237.175 78.9342C238.92 77.1386 241.31 76.0336 243.871 75.8385C246.432 75.6434 248.976 76.3724 250.999 77.8809L251.079 77.9611L264.25 95.9251C265.674 96.9888 266.821 98.3517 267.601 99.9073C268.38 101.463 268.772 103.169 268.745 104.893C268.718 106.617 268.273 108.311 267.445 109.844C266.617 111.377 265.428 112.707 263.971 113.73L237.505 132.972C236.905 133.394 236.18 133.621 235.434 133.621Z" fill="#CCCCCC"/>
<path d="M208.642 41.9854V33.0144L225.456 26.0209L241.489 33.0144V41.9854C241.489 42.3758 241.326 42.7503 241.036 43.0264C240.746 43.3026 240.353 43.4577 239.943 43.4577H210.188C209.778 43.4577 209.385 43.3026 209.095 43.0264C208.805 42.7503 208.642 42.3758 208.642 41.9854Z" fill="#2F2E41"/>
<path d="M224.684 20.5386C222.212 13.0014 227.404 4.36344 235.08 1.38003C242.756 -1.60337 251.938 0.48212 258.415 5.41116C264.892 10.3402 268.91 17.723 271.039 25.3546C273.168 32.9861 273.573 40.9441 273.966 48.8317C283.396 50.4817 289.811 61.136 286.544 69.7226C283.277 78.3092 271.186 82.5751 262.835 78.0871C254.484 73.5991 252.066 61.5348 258.093 54.4316C260.944 51.0705 262.537 46.8992 262.619 42.5783C262.701 38.2575 261.267 34.0341 258.545 30.5771C255.822 27.1201 251.967 24.6271 247.589 23.4929C243.211 22.3587 238.561 22.6482 234.376 24.3155C229.728 26.1669 223.896 21.3566 224.684 20.5386Z" fill="#2F2E41"/>
<path d="M118.721 74.413C107.43 74.3424 96.2801 72.0163 85.9919 67.5852C85.3795 67.3252 84.8596 66.9012 84.4958 66.3647C84.1319 65.8283 83.9396 65.2026 83.9424 64.564V37.7546C83.9434 36.8763 84.3102 36.0343 84.9622 35.4132C85.6142 34.7922 86.4982 34.4429 87.4202 34.4419H150.021C150.943 34.4429 151.827 34.7922 152.479 35.4133C153.131 36.0343 153.498 36.8763 153.499 37.7546V64.564C153.502 65.2027 153.309 65.8283 152.946 66.3647C152.582 66.9012 152.062 67.3252 151.449 67.5852C141.161 72.0164 130.011 74.3424 118.721 74.413Z" fill="#6C63FF"/>
<path d="M118.712 52.6941C118.248 52.6945 117.788 52.6065 117.361 52.4353L67.7189 32.4857C67.0787 32.2285 66.5341 31.7945 66.1553 31.2397C65.7765 30.6849 65.5809 30.0347 65.5936 29.373C65.6063 28.7113 65.8269 28.0684 66.2268 27.5272C66.6267 26.986 67.1876 26.5713 67.8372 26.3366L117.479 8.39806C118.279 8.10781 119.163 8.1096 119.961 8.40309L168.938 26.3416C169.584 26.5782 170.142 26.993 170.539 27.5329C170.936 28.0728 171.155 28.7133 171.167 29.3724C171.18 30.0315 170.986 30.6792 170.61 31.2327C170.234 31.7863 169.694 32.2204 169.057 32.4796L120.08 52.4288C119.647 52.6043 119.182 52.6945 118.712 52.6941Z" fill="#6C63FF"/>
<path d="M89.7387 69.4094C92.2997 69.4094 94.3758 67.4319 94.3758 64.9924C94.3758 62.553 92.2997 60.5755 89.7387 60.5755C87.1777 60.5755 85.1016 62.553 85.1016 64.9924C85.1016 67.4319 87.1777 69.4094 89.7387 69.4094Z" fill="#3F3D56"/>
<path opacity="0.2" d="M169.227 29.6479L120.249 49.5972C119.867 49.7527 119.456 49.8333 119.041 49.8343C118.626 49.8353 118.215 49.7565 117.832 49.6028L68.1903 29.6537C67.5669 29.4092 67.0468 28.9737 66.7122 28.4162C66.4933 28.7777 66.3576 29.1795 66.3143 29.5948C66.2709 30.0101 66.3207 30.4294 66.4605 30.825C66.6003 31.2205 66.8269 31.5832 67.1251 31.889C67.4233 32.1947 67.7864 32.4365 68.1903 32.5984L117.832 52.5474C118.215 52.7011 118.626 52.7799 119.041 52.7789C119.456 52.778 119.867 52.6973 120.249 52.5418L169.227 32.5925C169.629 32.4293 169.99 32.1867 170.286 31.8808C170.582 31.5749 170.807 31.2127 170.945 30.818C171.083 30.4233 171.132 30.0051 171.088 29.5911C171.045 29.1771 170.909 28.7766 170.691 28.4161C170.359 28.9692 169.844 29.4022 169.227 29.6479Z" fill="black"/>
<path d="M90.1283 64.9752C90.3333 64.9752 90.5299 64.8976 90.6748 64.7596C90.8198 64.6215 90.9012 64.4343 90.9012 64.239V39.6061L116.391 30.7611C116.596 30.764 116.793 30.6892 116.941 30.5532C117.088 30.4172 117.172 30.2311 117.175 30.0359C117.178 29.8406 117.1 29.6522 116.957 29.5121C116.814 29.372 116.619 29.2917 116.414 29.2887L90.9242 38.1338C90.7191 38.1293 90.5151 38.1645 90.3247 38.2373C90.1343 38.3101 89.9614 38.4189 89.8164 38.5572C89.6699 38.6939 89.5537 38.8571 89.4745 39.0372C89.3953 39.2174 89.3549 39.4108 89.3555 39.6061V64.239C89.3555 64.4343 89.4369 64.6215 89.5818 64.7596C89.7268 64.8976 89.9234 64.9752 90.1283 64.9752Z" fill="#3F3D56"/>
</g>
<defs>
<clipPath id="clip0_2_26">
<rect width="575" height="397" fill="white"/>
</clipPath>
</defs>
</svg>
